<svg xmlns="http://www.w3.org/2000/svg" viewBox="0 0 710 234.96"><defs><style>.cls-1{font-size:210.89px;font-family:Goldplay-Bold, Goldplay;font-weight:700;letter-spacing:-0.07em;}.cls-1,.cls-5{fill:#020266;}.cls-2{letter-spacing:-0.06em;}.cls-3{letter-spacing:-0.05em;}.cls-4{fill:#eeb628;}</style></defs><g id="Layer_2" data-name="Layer 2"><g id="Layer_1-2" data-name="Layer 1"><text class="cls-1" transform="translate(148.69 173.59)">k<tspan class="cls-2" x="107.07" y="0">e</tspan><tspan class="cls-3" x="217.54" y="0">ypa</tspan></text><path class="cls-4" d="M52.78,0H7.22C3.23,0,0,2.93,0,6.54V28.46C0,32.07,3.23,35,7.22,35H52.78c4,0,7.22-2.93,7.22-6.54V6.54C60,2.93,56.77,0,52.78,0Z"/><rect class="cls-5" x="10.11" y="51.45" width="108.54" height="17.32" rx="1.15"/><rect class="cls-5" y="41.34" width="128.76" height="37.54" rx="11.27"/><rect class="cls-5" x="10.11" y="53.19" width="17.32" height="108.54" rx="1.15"/><rect class="cls-5" y="43.08" width="37.54" height="128.76" rx="11.27"/><path class="cls-5" d="M117.49,161.72H106.87a1.13,1.13,0,0,1-.81-.34L20.7,76a1.15,1.15,0,0,1,0-1.63L31.31,63.78a1.16,1.16,0,0,1,1.64,0l85.36,85.35a1.15,1.15,0,0,1,.34.82v10.62A1.15,1.15,0,0,1,117.49,161.72Z"/><path class="cls-5" d="M117.49,171.83H106.87a11.23,11.23,0,0,1-8-3.28L13.55,83.17a11.28,11.28,0,0,1,0-15.93L24.16,56.63a11.28,11.28,0,0,1,15.94,0L125.46,142a11.36,11.36,0,0,1,3.3,8v10.62A11.28,11.28,0,0,1,117.49,171.83Zm-6.34-15.56,0,0Z"/></g></g></svg>